<?xml version="1.0" encoding="UTF-8"?>
<svg version="1.1" xmlns="http://www.w3.org/2000/svg" width="1024" height="1024">
<path d="M0 0 C337.92 0 675.84 0 1024 0 C1024 337.92 1024 675.84 1024 1024 C686.08 1024 348.16 1024 0 1024 C0 686.08 0 348.16 0 0 Z " fill="#FAFAFA" transform="translate(0,0)"/>
<path d="M0 0 C48.18 0 96.36 0 146 0 C146 43.23 146 86.46 146 131 C199.46 131 252.92 131 308 131 C308 176.87 308 222.74 308 270 C253.88 270 199.76 270 144 270 C144 310.26 144 350.52 144 392 C198.12 392 252.24 392 308 392 C308 437.54 308 483.08 308 530 C266.90433944 530.04030303 266.90433944 530.04030303 249.68945312 530.04882812 C237.80085824 530.05476281 225.91227045 530.06174136 214.02368164 530.07543945 C205.36547339 530.08541072 196.70727089 530.09185926 188.04905707 530.09408849 C183.4651767 530.09539144 178.88131277 530.09845104 174.29743767 530.10573006 C169.98094965 530.11252879 165.66448481 530.11460911 161.34799194 530.11310768 C159.76578711 530.11338228 158.18358149 530.1153645 156.6013813 530.11920547 C154.4361659 530.12420295 152.27103724 530.12297606 150.1058197 530.12025452 C148.89550551 530.12117631 147.68519133 530.1220981 146.43820095 530.12304783 C136.98460837 529.78471855 136.98460837 529.78471855 134.16967773 527.54125977 C133.69989502 526.91018311 133.2301123 526.27910645 132.74609375 525.62890625 C128.6735872 520.53174115 124.12919243 515.97851209 119.51196289 511.3815918 C118.06475615 509.93974779 116.62297974 508.49262884 115.18164062 507.04492188 C114.23729956 506.10124177 113.29264826 505.157872 112.34765625 504.21484375 C111.09480835 502.96368774 111.09480835 502.96368774 109.81665039 501.68725586 C107.68788982 499.65628875 105.54344249 497.72900258 103.31445312 495.81445312 C98.18608053 491.35971871 93.41729551 486.56064859 88.62109375 481.75390625 C87.64053119 480.77401947 86.65982041 479.79428099 85.67897034 478.81468201 C83.63599787 476.7731736 81.59481831 474.72989434 79.55493164 472.68530273 C76.96080134 470.08547596 74.36220566 467.49016627 71.7622366 464.89618015 C69.73992175 462.87750604 67.7200281 460.85642267 65.70082283 458.8346386 C64.28483754 457.41767676 62.86686485 456.00270183 61.44883728 454.58778381 C56.9770717 450.09990116 52.65461851 445.55512052 48.52677917 440.74916077 C46.36400829 438.27137352 44.05579663 435.96122573 41.71484375 433.65234375 C41.01857628 432.96175621 41.01857628 432.96175621 40.3082428 432.25721741 C38.85380993 430.81477721 37.39612459 429.37570044 35.9375 427.9375 C25.2032935 417.35304825 25.2032935 417.35304825 21.50390625 412.94140625 C19.14615414 409.89953475 19.14615414 409.89953475 16 408 C16 407.34 16 406.68 16 406 C15.0409375 405.5978125 15.0409375 405.5978125 14.0625 405.1875 C12 404 12 404 11 401 C10.34 401 9.68 401 9 401 C7.34375 399.3203125 7.34375 399.3203125 5.5 397.125 C3.71066742 395.00964496 1.95980876 392.95980876 0 391 C-0.24609566 388.83296776 -0.24609566 388.83296776 -0.24050903 386.0899353 C-0.24325836 385.05224503 -0.24600769 384.01455475 -0.24884033 382.94541931 C-0.24164978 381.80246902 -0.23445923 380.65951874 -0.22705078 379.48193359 C-0.22734283 378.28195236 -0.22763489 377.08197113 -0.22793579 375.84562683 C-0.22677912 372.55029814 -0.21673146 369.25521837 -0.20278788 365.95993376 C-0.19030657 362.51794381 -0.18911208 359.07595074 -0.18673706 355.63394165 C-0.18051462 349.11389656 -0.16409353 342.59391834 -0.14403808 336.07390273 C-0.12170279 328.65199971 -0.11069163 321.23009355 -0.10064721 313.80816531 C-0.07972792 298.53873811 -0.04453717 283.26937767 0 268 C17.35097581 267.94297781 34.69731035 267.98091175 52.046875 268.21875 C52.85033859 268.22973724 53.65380219 268.24072449 54.48161316 268.25204468 C60.23778812 268.33157868 65.99389714 268.41543267 71.75 268.5 C78.32808981 268.5963403 84.90620102 268.69082409 91.484375 268.78125 C92.27411209 268.79215668 93.06384918 268.80306335 93.8775177 268.81430054 C108.91901407 269.01831937 123.95715947 269.05807874 139 269 C135.58942868 265.56446391 132.1753981 262.13241435 128.75830078 258.70336914 C127.59949681 257.53957726 126.44159678 256.37488451 125.28466797 255.20922852 C123.60889423 253.52114356 121.92975246 251.83646862 120.25 250.15234375 C119.7444458 249.64162827 119.2388916 249.13091278 118.71801758 248.60472107 C112.30910703 242.19484221 105.39079627 236.46658538 98.27763939 230.8582592 C82.51031905 218.39849499 67.3419016 205.29610731 52.5 191.75 C51.87547723 191.18161817 51.25095446 190.61323633 50.60750675 190.02763081 C20.60813883 162.65632328 -4.07754569 136.87161826 -7.0078125 94.8203125 C-7.05913881 94.12660852 -7.11046512 93.43290454 -7.16334677 92.71817923 C-9.31388882 61.90885635 -3.39621518 30.18145944 0 0 Z " fill="#000000" transform="translate(358,272)"/>
</svg>
